<?xml version="1.0" standalone="no"?><!DOCTYPE svg PUBLIC "-//W3C//DTD SVG 1.1//EN" "http://www.w3.org/Graphics/SVG/1.1/DTD/svg11.dtd"><svg t="1731941100116" class="icon" viewBox="0 0 1024 1024" version="1.1" xmlns="http://www.w3.org/2000/svg" p-id="988" xmlns:xlink="http://www.w3.org/1999/xlink" width="200" height="200"><path d="M768.6 920H255.4C168.6 920 98 849.4 98 762.6V262.4C98 175.6 168.6 105 255.4 105h513.2c86.8 0 157.4 70.6 157.4 157.4v500.2c0 86.8-70.6 157.4-157.4 157.4zM255.4 171c-50.4 0-91.4 41-91.4 91.4v500.2c0 50.4 41 91.4 91.4 91.4h513.2c50.4 0 91.4-41 91.4-91.4V262.4c0-50.4-41-91.4-91.4-91.4H255.4z" fill="#1296db" p-id="989"></path><path d="M181.1 813.5l-58-31.5c55.1-101.4 161-164.4 276.3-164.4 15.2 0 30.4 1.1 45.4 3.3 12.1-36.2 28.9-70.6 50.1-102.7 26.4-40.1 59-75.5 96.9-105.3 38.2-30 80.8-53.4 126.4-69.5 47.2-16.6 96.8-25.1 147.3-25.1 9.9 0 19.9 0.3 29.7 1l-4.4 65.9c-8.4-0.6-16.9-0.8-25.3-0.8-172.3 0-322.6 116.3-365.6 282.9l-8.2 31.7-31.8-8c-19.7-4.9-40.1-7.4-60.5-7.4-91.2 0-174.8 49.8-218.3 129.9zM324.8 429.8c-32 0-58-26-58-58s26-58 58-58 58 26 58 58-26.1 58-58 58z" fill="#1296db" p-id="990"></path><path d="M324.8 371.9m-8 0a8 8 0 1 0 16 0 8 8 0 1 0-16 0Z" fill="#1296db" p-id="991"></path></svg>